<svg width="208" height="43" viewBox="0 0 208 43" fill="none" xmlns="http://www.w3.org/2000/svg">
<path d="M6.072 33.297C5.632 33.297 5.137 33.253 4.587 33.165C4.059 33.077 3.553 32.967 3.069 32.835C2.607 32.703 2.244 32.56 1.98 32.406C1.826 32.318 1.705 32.23 1.617 32.142C1.551 32.032 1.518 31.856 1.518 31.614L1.353 26.433C1.353 25.993 1.496 25.773 1.782 25.773C2.024 25.773 2.189 25.971 2.277 26.367L2.574 27.621C3.322 30.767 4.719 32.34 6.765 32.34C7.865 32.34 8.734 31.977 9.372 31.251C10.032 30.503 10.362 29.458 10.362 28.116C10.362 26.818 10.021 25.608 9.339 24.486C8.679 23.364 7.612 22.253 6.138 21.153C4.51 19.987 3.322 18.865 2.574 17.787C1.826 16.687 1.452 15.521 1.452 14.289C1.452 12.661 2.013 11.363 3.135 10.395C4.279 9.405 5.731 8.91 7.491 8.91C8.151 8.91 8.789 8.987 9.405 9.141C10.021 9.295 10.527 9.515 10.923 9.801C11.055 9.889 11.154 9.988 11.22 10.098C11.308 10.208 11.352 10.351 11.352 10.527L11.451 15.51C11.451 15.884 11.308 16.071 11.022 16.071C10.824 16.071 10.681 15.917 10.593 15.609L10.362 14.784C9.878 13.09 9.372 11.858 8.844 11.088C8.338 10.296 7.601 9.9 6.633 9.9C5.687 9.9 4.928 10.208 4.356 10.824C3.806 11.44 3.531 12.309 3.531 13.431C3.531 14.377 3.839 15.279 4.455 16.137C5.071 16.995 6.149 18.04 7.689 19.272C9.339 20.614 10.538 21.912 11.286 23.166C12.056 24.398 12.441 25.718 12.441 27.126C12.441 28.358 12.166 29.436 11.616 30.36C11.066 31.284 10.307 32.01 9.339 32.538C8.393 33.044 7.304 33.297 6.072 33.297ZM20.1375 33.297C19.0155 33.297 18.0035 32.923 17.1015 32.175C16.2215 31.405 15.5175 30.36 14.9895 29.04C14.4615 27.72 14.1975 26.246 14.1975 24.618C14.1975 22.99 14.4615 21.527 14.9895 20.229C15.5175 18.931 16.2325 17.897 17.1345 17.127C18.0365 16.357 19.0375 15.972 20.1375 15.972C21.2595 15.972 22.2605 16.357 23.1405 17.127C24.0425 17.897 24.7575 18.931 25.2855 20.229C25.8135 21.527 26.0775 22.99 26.0775 24.618C26.0775 26.246 25.8135 27.72 25.2855 29.04C24.7795 30.36 24.0755 31.405 23.1735 32.175C22.2715 32.923 21.2595 33.297 20.1375 33.297ZM20.1375 32.472C22.4255 32.472 23.5695 29.854 23.5695 24.618C23.5695 19.404 22.4255 16.797 20.1375 16.797C17.8495 16.797 16.7055 19.404 16.7055 24.618C16.7055 29.854 17.8495 32.472 20.1375 32.472ZM33.7072 33.297C32.8052 33.297 31.9362 33.011 31.1002 32.439C30.6162 32.109 30.1762 32.197 29.7802 32.703C29.5602 32.945 29.3952 33.099 29.2852 33.165C29.1752 33.253 29.0652 33.297 28.9552 33.297C28.7132 33.297 28.6252 33.143 28.6912 32.835C28.7792 32.329 28.8452 31.68 28.8892 30.888C28.9332 30.096 28.9552 29.04 28.9552 27.72V11.88C28.9552 11.484 28.8892 11.22 28.7572 11.088C28.6472 10.934 28.4382 10.835 28.1302 10.791L27.4372 10.692C27.1952 10.648 27.0742 10.516 27.0742 10.296C27.0742 10.076 27.1952 9.944 27.4372 9.9C28.0532 9.768 28.5702 9.614 28.9882 9.438C29.4062 9.262 29.7582 9.086 30.0442 8.91C30.3962 8.69 30.6602 8.58 30.8362 8.58C31.0782 8.58 31.1992 8.756 31.1992 9.108V17.259C31.1992 17.435 31.2652 17.556 31.3972 17.622C31.5512 17.666 31.7162 17.6 31.8922 17.424C32.8382 16.456 33.8722 15.972 34.9942 15.972C36.0062 15.972 36.8972 16.313 37.6672 16.995C38.4592 17.655 39.0752 18.579 39.5152 19.767C39.9772 20.955 40.2082 22.352 40.2082 23.958C40.2082 25.784 39.9222 27.401 39.3502 28.809C38.7782 30.217 37.9972 31.317 37.0072 32.109C36.0392 32.901 34.9392 33.297 33.7072 33.297ZM33.6412 32.472C34.8732 32.472 35.8632 31.746 36.6112 30.294C37.3812 28.842 37.7662 26.884 37.7662 24.42C37.7662 22.154 37.4362 20.427 36.7762 19.239C36.1162 18.051 35.1812 17.457 33.9712 17.457C33.2232 17.457 32.5742 17.765 32.0242 18.381C31.4742 18.997 31.1992 19.855 31.1992 20.955V29.271C31.1992 30.261 31.4192 31.042 31.8592 31.614C32.3212 32.186 32.9152 32.472 33.6412 32.472ZM47.876 33.297C46.82 33.297 45.874 32.945 45.038 32.241C44.202 31.537 43.531 30.547 43.025 29.271C42.541 27.973 42.299 26.477 42.299 24.783C42.299 23.045 42.552 21.516 43.058 20.196C43.564 18.876 44.257 17.842 45.137 17.094C46.017 16.346 46.996 15.972 48.074 15.972C49.372 15.972 50.417 16.511 51.209 17.589C52.023 18.645 52.43 20.372 52.43 22.77C52.43 23.496 52.155 23.859 51.605 23.859H45.335C44.895 23.859 44.675 24.112 44.675 24.618C44.675 26.95 45.016 28.699 45.698 29.865C46.38 31.031 47.249 31.614 48.305 31.614C49.141 31.614 49.823 31.317 50.351 30.723C50.879 30.129 51.308 29.128 51.638 27.72C51.704 27.478 51.847 27.357 52.067 27.357C52.331 27.357 52.43 27.577 52.364 28.017C52.012 29.975 51.451 31.35 50.681 32.142C49.911 32.912 48.976 33.297 47.876 33.297ZM45.236 23.034H48.569C49.625 23.034 50.153 22.484 50.153 21.384C50.153 19.954 49.977 18.832 49.625 18.018C49.273 17.204 48.745 16.797 48.041 16.797C47.183 16.797 46.457 17.292 45.863 18.282C45.291 19.272 44.917 20.68 44.741 22.506C44.697 22.858 44.862 23.034 45.236 23.034ZM58.3525 18.282C59.2545 16.742 60.3435 15.972 61.6195 15.972C62.3455 15.972 62.8845 16.192 63.2365 16.632C63.5885 17.05 63.7645 17.523 63.7645 18.051C63.7645 18.469 63.6545 18.81 63.4345 19.074C63.2365 19.338 62.9175 19.47 62.4775 19.47C62.1255 19.47 61.8615 19.393 61.6855 19.239C61.5315 19.063 61.3995 18.865 61.2895 18.645C61.2015 18.425 61.0915 18.238 60.9595 18.084C60.8275 17.908 60.6075 17.82 60.2995 17.82C59.9035 17.82 59.5295 18.062 59.1775 18.546C58.8255 19.008 58.5285 19.635 58.2865 20.427C58.0665 21.219 57.9565 22.121 57.9565 23.133V30.789C57.9565 31.251 58.0225 31.581 58.1545 31.779C58.3085 31.977 58.6165 32.098 59.0785 32.142L59.9695 32.241C60.2115 32.285 60.3325 32.406 60.3325 32.604C60.3325 32.868 60.1675 33 59.8375 33H54.2605C53.9305 33 53.7655 32.879 53.7655 32.637C53.7655 32.439 53.9085 32.307 54.1945 32.241L54.5905 32.175C55.0525 32.087 55.3495 31.955 55.4815 31.779C55.6355 31.581 55.7125 31.251 55.7125 30.789V19.701C55.7125 19.305 55.6465 19.041 55.5145 18.909C55.4045 18.755 55.1955 18.656 54.8875 18.612L54.1945 18.513C53.9085 18.491 53.7655 18.37 53.7655 18.15C53.7655 17.974 53.9415 17.853 54.2935 17.787C54.9755 17.677 55.4925 17.501 55.8445 17.259C56.2185 17.017 56.6035 16.72 56.9995 16.368C57.1975 16.17 57.3625 16.071 57.4945 16.071C57.6925 16.071 57.7915 16.203 57.7915 16.467V18.249C57.7915 18.403 57.8575 18.502 57.9895 18.546C58.1215 18.568 58.2425 18.48 58.3525 18.282ZM78.0324 33.33C77.9444 33.33 77.8564 33.297 77.7684 33.231C77.6804 33.165 77.6144 33.022 77.5704 32.802L75.0294 22.572C75.0074 22.396 74.9414 22.319 74.8314 22.341C74.7214 22.341 74.6444 22.418 74.6004 22.572L71.7624 32.802C71.6964 33.022 71.6194 33.165 71.5314 33.231C71.4654 33.297 71.3884 33.33 71.3004 33.33C71.2124 33.33 71.1134 33.297 71.0034 33.231C70.9154 33.165 70.8494 33.022 70.8054 32.802L65.5914 11.88C65.4374 11.264 65.2614 10.835 65.0634 10.593C64.8874 10.351 64.5794 10.186 64.1394 10.098L63.6444 9.999C63.3364 9.933 63.1824 9.79 63.1824 9.57C63.1824 9.35 63.3474 9.24 63.6774 9.24H68.9904C69.2984 9.24 69.4524 9.361 69.4524 9.603C69.4524 9.801 69.2874 9.933 68.9574 9.999L68.5944 10.065C68.2204 10.131 67.9784 10.263 67.8684 10.461C67.7804 10.637 67.7914 10.967 67.9014 11.451L71.7954 27.555C71.8394 27.709 71.9054 27.786 71.9934 27.786C72.1034 27.786 72.1804 27.709 72.2244 27.555L73.7094 22.176C73.9514 21.34 74.0724 20.57 74.0724 19.866C74.0724 19.162 73.9624 18.381 73.7424 17.523L72.3564 11.88C72.2024 11.264 72.0484 10.824 71.8944 10.56C71.7624 10.296 71.5754 10.142 71.3334 10.098L70.8384 9.999C70.5304 9.933 70.3764 9.79 70.3764 9.57C70.3764 9.35 70.5414 9.24 70.8714 9.24H75.3924C75.7004 9.24 75.8544 9.361 75.8544 9.603C75.8544 9.801 75.6894 9.933 75.3594 9.999L74.9964 10.065C74.7104 10.109 74.5344 10.23 74.4684 10.428C74.4244 10.626 74.4574 10.967 74.5674 11.451L75.6894 16.17C75.7334 16.324 75.7994 16.401 75.8874 16.401C75.9974 16.401 76.0744 16.324 76.1184 16.17L77.3064 12.144C77.5484 11.308 77.6364 10.758 77.5704 10.494C77.5264 10.23 77.4054 10.087 77.2074 10.065L76.8444 9.999C76.5144 9.933 76.3494 9.801 76.3494 9.603C76.3494 9.361 76.5034 9.24 76.8114 9.24H79.9464C80.3204 9.24 80.5074 9.361 80.5074 9.603C80.5074 9.823 80.3204 9.955 79.9464 9.999L79.5834 10.032C79.2974 10.054 79.0554 10.23 78.8574 10.56C78.6814 10.89 78.4834 11.429 78.2634 12.177L77.0094 16.5C76.7674 17.314 76.6354 18.084 76.6134 18.81C76.6134 19.514 76.7124 20.295 76.9104 21.153L78.3954 27.357C78.4394 27.511 78.5054 27.588 78.5934 27.588C78.7034 27.588 78.7694 27.511 78.7914 27.357L82.5864 12.144C82.8944 10.868 82.6964 10.175 81.9924 10.065L81.6294 9.999C81.2994 9.933 81.1344 9.79 81.1344 9.57C81.1344 9.35 81.2884 9.24 81.5964 9.24H85.2924C85.6664 9.24 85.8534 9.361 85.8534 9.603C85.8534 9.823 85.6664 9.955 85.2924 9.999L84.9294 10.032C84.6434 10.054 84.3904 10.23 84.1704 10.56C83.9724 10.868 83.7854 11.407 83.6094 12.177L78.4944 32.802C78.4504 33.022 78.3844 33.165 78.2964 33.231C78.2084 33.297 78.1204 33.33 78.0324 33.33ZM86.1625 33C85.8985 33 85.7665 32.879 85.7665 32.637C85.7665 32.417 85.8875 32.285 86.1295 32.241L86.5915 32.175C87.0535 32.109 87.3505 31.977 87.4825 31.779C87.6365 31.581 87.7135 31.251 87.7135 30.789V11.88C87.7135 11.484 87.6475 11.22 87.5155 11.088C87.4055 10.934 87.1965 10.835 86.8885 10.791L86.1955 10.692C85.9535 10.648 85.8325 10.516 85.8325 10.296C85.8325 10.076 85.9535 9.944 86.1955 9.9C86.8115 9.768 87.3285 9.614 87.7465 9.438C88.1645 9.262 88.5165 9.086 88.8025 8.91C89.1545 8.69 89.4185 8.58 89.5945 8.58C89.8365 8.58 89.9575 8.756 89.9575 9.108V17.853C89.9575 18.051 90.0235 18.172 90.1555 18.216C90.2875 18.238 90.4525 18.161 90.6505 17.985C91.4865 17.215 92.2235 16.687 92.8615 16.401C93.4995 16.115 94.1705 15.972 94.8745 15.972C95.9085 15.972 96.7225 16.324 97.3165 17.028C97.9105 17.71 98.2075 18.722 98.2075 20.064V30.789C98.2075 31.251 98.2735 31.581 98.4055 31.779C98.5595 31.955 98.8675 32.076 99.3295 32.142L100.055 32.241C100.297 32.285 100.418 32.417 100.418 32.637C100.418 32.879 100.286 33 100.022 33H94.4785C94.1705 33 94.0165 32.879 94.0165 32.637C94.0165 32.417 94.1375 32.285 94.3795 32.241L94.8415 32.175C95.3035 32.109 95.6005 31.977 95.7325 31.779C95.8865 31.581 95.9635 31.251 95.9635 30.789V20.427C95.9635 19.349 95.7655 18.59 95.3695 18.15C94.9735 17.71 94.4125 17.49 93.6865 17.49C92.9825 17.49 92.3445 17.699 91.7725 18.117C91.2225 18.513 90.7825 19.052 90.4525 19.734C90.1225 20.394 89.9575 21.131 89.9575 21.945V30.789C89.9575 31.251 90.0235 31.581 90.1555 31.779C90.3095 31.977 90.6175 32.098 91.0795 32.142L91.9705 32.241C92.2125 32.285 92.3335 32.417 92.3335 32.637C92.3335 32.879 92.2015 33 91.9375 33H86.1625ZM107.108 33.297C106.052 33.297 105.106 32.945 104.27 32.241C103.434 31.537 102.763 30.547 102.257 29.271C101.773 27.973 101.531 26.477 101.531 24.783C101.531 23.045 101.784 21.516 102.29 20.196C102.796 18.876 103.489 17.842 104.369 17.094C105.249 16.346 106.228 15.972 107.306 15.972C108.604 15.972 109.649 16.511 110.441 17.589C111.255 18.645 111.662 20.372 111.662 22.77C111.662 23.496 111.387 23.859 110.837 23.859H104.567C104.127 23.859 103.907 24.112 103.907 24.618C103.907 26.95 104.248 28.699 104.93 29.865C105.612 31.031 106.481 31.614 107.537 31.614C108.373 31.614 109.055 31.317 109.583 30.723C110.111 30.129 110.54 29.128 110.87 27.72C110.936 27.478 111.079 27.357 111.299 27.357C111.563 27.357 111.662 27.577 111.596 28.017C111.244 29.975 110.683 31.35 109.913 32.142C109.143 32.912 108.208 33.297 107.108 33.297ZM104.468 23.034H107.801C108.857 23.034 109.385 22.484 109.385 21.384C109.385 19.954 109.209 18.832 108.857 18.018C108.505 17.204 107.977 16.797 107.273 16.797C106.415 16.797 105.689 17.292 105.095 18.282C104.523 19.272 104.149 20.68 103.973 22.506C103.929 22.858 104.094 23.034 104.468 23.034ZM118.839 33.297C117.783 33.297 116.837 32.945 116.001 32.241C115.165 31.537 114.494 30.547 113.988 29.271C113.504 27.973 113.262 26.477 113.262 24.783C113.262 23.045 113.515 21.516 114.021 20.196C114.527 18.876 115.22 17.842 116.1 17.094C116.98 16.346 117.959 15.972 119.037 15.972C120.335 15.972 121.38 16.511 122.172 17.589C122.986 18.645 123.393 20.372 123.393 22.77C123.393 23.496 123.118 23.859 122.568 23.859H116.298C115.858 23.859 115.638 24.112 115.638 24.618C115.638 26.95 115.979 28.699 116.661 29.865C117.343 31.031 118.212 31.614 119.268 31.614C120.104 31.614 120.786 31.317 121.314 30.723C121.842 30.129 122.271 29.128 122.601 27.72C122.667 27.478 122.81 27.357 123.03 27.357C123.294 27.357 123.393 27.577 123.327 28.017C122.975 29.975 122.414 31.35 121.644 32.142C120.874 32.912 119.939 33.297 118.839 33.297ZM116.199 23.034H119.532C120.588 23.034 121.116 22.484 121.116 21.384C121.116 19.954 120.94 18.832 120.588 18.018C120.236 17.204 119.708 16.797 119.004 16.797C118.146 16.797 117.42 17.292 116.826 18.282C116.254 19.272 115.88 20.68 115.704 22.506C115.66 22.858 115.825 23.034 116.199 23.034ZM124.893 33C124.629 33 124.497 32.879 124.497 32.637C124.497 32.417 124.618 32.285 124.86 32.241L125.322 32.175C125.784 32.109 126.125 31.977 126.345 31.779C126.565 31.581 126.675 31.251 126.675 30.789V11.88C126.675 11.484 126.609 11.209 126.477 11.055C126.367 10.901 126.158 10.813 125.85 10.791L125.091 10.692C124.849 10.648 124.728 10.516 124.728 10.296C124.728 10.076 124.849 9.944 125.091 9.9C125.707 9.768 126.235 9.614 126.675 9.438C127.115 9.262 127.478 9.086 127.764 8.91C128.116 8.69 128.38 8.58 128.556 8.58C128.798 8.58 128.919 8.756 128.919 9.108V30.789C128.919 31.251 128.985 31.581 129.117 31.779C129.271 31.955 129.579 32.076 130.041 32.142L130.8 32.241C131.042 32.285 131.163 32.417 131.163 32.637C131.163 32.879 131.031 33 130.767 33H124.893ZM135.807 33.297C135.301 33.297 134.762 33.231 134.19 33.099C133.618 32.989 133.156 32.846 132.804 32.67C132.606 32.56 132.507 32.373 132.507 32.109L132.408 28.413C132.408 28.039 132.551 27.852 132.837 27.852C133.079 27.852 133.244 28.028 133.332 28.38C133.706 29.942 134.157 31.009 134.685 31.581C135.235 32.153 135.895 32.439 136.665 32.439C137.303 32.439 137.831 32.197 138.249 31.713C138.667 31.207 138.876 30.514 138.876 29.634C138.876 28.754 138.634 27.973 138.15 27.291C137.666 26.609 136.852 25.861 135.708 25.047C134.564 24.277 133.728 23.507 133.2 22.737C132.672 21.945 132.408 21.087 132.408 20.163C132.408 18.909 132.848 17.897 133.728 17.127C134.608 16.357 135.774 15.972 137.226 15.972C137.666 15.972 138.095 16.027 138.513 16.137C138.931 16.225 139.305 16.379 139.635 16.599C139.833 16.731 139.932 16.907 139.932 17.127L139.998 20.757C139.998 21.087 139.866 21.252 139.602 21.252C139.448 21.252 139.338 21.208 139.272 21.12C139.206 21.01 139.151 20.878 139.107 20.724C138.667 19.294 138.227 18.304 137.787 17.754C137.347 17.182 136.808 16.896 136.17 16.896C135.598 16.896 135.125 17.094 134.751 17.49C134.377 17.886 134.19 18.381 134.19 18.975C134.19 19.745 134.421 20.416 134.883 20.988C135.345 21.56 136.181 22.264 137.391 23.1C138.491 23.892 139.316 24.75 139.866 25.674C140.438 26.576 140.724 27.566 140.724 28.644C140.724 30.052 140.273 31.185 139.371 32.043C138.469 32.879 137.281 33.297 135.807 33.297Z" fill="#E9BA00"/>
<path fill-rule="evenodd" clip-rule="evenodd" d="M185.269 15.469L182.105 18.0439C182.087 18.0573 182.069 18.0712 182.052 18.0854L181.999 18.1297V18.1325C181.856 18.2649 181.742 18.425 181.664 18.6031C181.586 18.7811 181.546 18.9732 181.546 19.1674C181.546 19.5431 181.696 19.9035 181.963 20.1692C182.23 20.4349 182.592 20.5841 182.97 20.5841H184.393V25.5582C178.84 36.8579 159.582 34.8028 159 19.4084C159.004 15.8534 160.42 12.4452 162.939 9.93147C165.457 7.41774 168.871 6.00384 172.433 6C175.994 6.00384 179.409 7.41774 181.927 9.93147C183.49 11.4921 184.629 13.3976 185.269 15.469ZM173.379 20.6375C173.068 20.5674 172.751 20.53 172.433 20.5257C172.114 20.5289 171.797 20.5652 171.487 20.6341C171.458 20.011 171.287 19.4027 170.988 18.8553C171.542 18.6552 172.038 18.3217 172.433 17.8843C172.628 18.0969 172.847 18.2879 173.083 18.4541C173.332 18.6179 173.599 18.7536 173.878 18.8586C173.578 19.406 173.407 20.0144 173.379 20.6375ZM168.862 16.7781L165.684 15.454C166.279 14.4439 167.094 13.58 168.068 12.9261C169.043 12.2723 170.152 11.8451 171.313 11.6762V15.121C171.313 15.4124 171.24 15.6991 171.103 15.9563C170.966 16.2134 170.768 16.4333 170.527 16.5966C170.285 16.76 170.007 16.8619 169.717 16.8935C169.427 16.9251 169.133 16.8855 168.862 16.7781ZM173.552 15.121V11.6762C174.719 11.8453 175.833 12.2752 176.811 12.934C177.789 13.5928 178.605 14.4634 179.198 15.4808L175.998 16.7814C175.727 16.8878 175.434 16.9265 175.144 16.8941C174.854 16.8618 174.577 16.7593 174.336 16.5957C174.095 16.4321 173.898 16.2123 173.761 15.9553C173.624 15.6983 173.553 15.412 173.552 15.121ZM177.093 18.7514L180.037 17.5524C180.352 18.8452 180.332 20.197 179.978 21.4798C179.624 22.7626 178.948 23.9341 178.014 24.8835L176.058 22.3705C175.842 22.078 175.696 21.7399 175.632 21.3822C175.567 21.0246 175.585 20.6569 175.685 20.3074C175.785 19.9579 175.964 19.6359 176.208 19.3662C176.452 19.0964 176.755 18.8861 177.093 18.7514ZM174.224 23.6544L176.231 26.2433H176.233C175.071 26.8833 173.765 27.2193 172.437 27.2201C171.11 27.2209 169.803 26.8864 168.64 26.2478L170.633 23.6666C170.847 23.3969 171.12 23.1788 171.43 23.0285C171.74 22.8782 172.08 22.7995 172.425 22.7983C172.77 22.7972 173.111 22.8735 173.422 23.0217C173.734 23.1699 174.008 23.3861 174.224 23.6544ZM166.856 24.8945L168.795 22.3828C169.015 22.0895 169.164 21.7495 169.23 21.3892C169.296 21.029 169.279 20.6583 169.178 20.3061C169.077 19.9539 168.896 19.6297 168.649 19.3588C168.402 19.088 168.096 18.8778 167.754 18.7447L164.834 17.5256C164.512 18.8242 164.528 20.1837 164.883 21.474C165.237 22.7638 165.916 23.9415 166.856 24.8945Z" fill="#E9BA00"/>
<path d="M196.121 9.00024C195.87 9.00026 195.628 9.09836 195.448 9.27353L184.941 17.8242C184.929 17.8332 184.917 17.8426 184.905 17.8522L184.869 17.8822V17.8841C184.773 17.9736 184.695 18.082 184.643 18.2024C184.59 18.3228 184.563 18.4528 184.562 18.5841C184.562 18.8383 184.664 19.0821 184.845 19.2618C185.025 19.4415 185.27 19.5425 185.526 19.5425H186.489V30.0848C186.489 31.1438 187.351 32.0016 188.415 32.0016H203.827C204.892 32.0016 205.754 31.1438 205.754 30.0848V19.5425H206.717C206.973 19.5425 207.218 19.4415 207.398 19.2618C207.579 19.0821 207.68 18.8383 207.68 18.5841C207.68 18.4524 207.653 18.3222 207.601 18.2014C207.548 18.0806 207.471 17.972 207.374 17.8822L207.359 17.871C207.338 17.8519 207.316 17.8338 207.293 17.8167L205.754 16.5644V12.8338C205.754 12.3048 205.322 11.8754 204.791 11.8754H203.827C203.296 11.8754 202.864 12.3048 202.864 12.8338V14.2134L196.774 9.25669C196.597 9.09256 196.364 9.001 196.121 9.00024ZM199.011 21.4593H202.864V29.1264H199.011V21.4593Z" fill="#E9BA00"/>
</svg>
